<mxfile host="Electron" modified="2023-05-22T07:43:32.486Z" agent="5.0 (Windows NT 10.0; Win64; x64) AppleWebKit/537.36 (KHTML, like Gecko) draw.io/20.3.0 Chrome/104.0.5112.114 Electron/20.1.3 Safari/537.36" etag="MRq_CXoHxvgOdYj48N6F" compressed="false" version="20.3.0" type="device">
  <diagram name="ND0007" id="Xz8dfBmD0SanEypaGy8H">
    <mxGraphModel dx="1420" dy="855" grid="1" gridSize="2" guides="1" tooltips="1" connect="1" arrows="1" fold="1" page="1" pageScale="1" pageWidth="1169" pageHeight="827" math="0" shadow="0">
      <root>
        <mxCell id="LvrahCDW-8UCbeui2JCp-0" />
        <mxCell id="LvrahCDW-8UCbeui2JCp-1" value="Grid" style="locked=1;" parent="LvrahCDW-8UCbeui2JCp-0" />
        <mxCell id="LvrahCDW-8UCbeui2JCp-2" value="Grid" style="group;noLabel=1;" parent="LvrahCDW-8UCbeui2JCp-1" vertex="1" connectable="0">
          <mxGeometry x="16" y="16" width="1136" height="800" as="geometry" />
        </mxCell>
        <mxCell id="LvrahCDW-8UCbeui2JCp-3" style="vsdxID=1362;edgeStyle=none;startArrow=none;endArrow=none;startSize=5;endSize=5;strokeColor=#D8D8D8;spacingTop=0;spacingBottom=0;spacingLeft=0;spacingRight=0;verticalAlign=middle;html=1;labelBackgroundColor=#ffffff;rounded=0;fillOpacity=80;strokeOpacity=20;" parent="LvrahCDW-8UCbeui2JCp-2" edge="1">
          <mxGeometry relative="1" as="geometry">
            <Array as="points" />
            <mxPoint x="832" y="800" as="sourcePoint" />
            <mxPoint x="832" as="targetPoint" />
          </mxGeometry>
        </mxCell>
        <mxCell id="LvrahCDW-8UCbeui2JCp-4" style="vsdxID=1363;edgeStyle=none;startArrow=none;endArrow=none;startSize=5;endSize=5;strokeColor=#D8D8D8;spacingTop=0;spacingBottom=0;spacingLeft=0;spacingRight=0;verticalAlign=middle;html=1;labelBackgroundColor=#ffffff;rounded=0;fillOpacity=80;strokeOpacity=20;" parent="LvrahCDW-8UCbeui2JCp-2" edge="1">
          <mxGeometry relative="1" as="geometry">
            <Array as="points" />
            <mxPoint x="816" y="800" as="sourcePoint" />
            <mxPoint x="816" as="targetPoint" />
          </mxGeometry>
        </mxCell>
        <mxCell id="LvrahCDW-8UCbeui2JCp-5" style="vsdxID=1364;edgeStyle=none;startArrow=none;endArrow=none;startSize=5;endSize=5;strokeColor=#0F0F0F;spacingTop=0;spacingBottom=0;spacingLeft=0;spacingRight=0;verticalAlign=middle;html=1;labelBackgroundColor=#ffffff;rounded=0;fillOpacity=80;strokeOpacity=20;" parent="LvrahCDW-8UCbeui2JCp-2" edge="1">
          <mxGeometry relative="1" as="geometry">
            <Array as="points" />
            <mxPoint x="800" y="800" as="sourcePoint" />
            <mxPoint x="800" as="targetPoint" />
          </mxGeometry>
        </mxCell>
        <mxCell id="LvrahCDW-8UCbeui2JCp-6" style="vsdxID=1396;edgeStyle=none;startArrow=none;endArrow=none;startSize=5;endSize=5;strokeColor=#0F0F0F;spacingTop=0;spacingBottom=0;spacingLeft=0;spacingRight=0;verticalAlign=middle;html=1;labelBackgroundColor=#ffffff;rounded=0;fillOpacity=80;strokeOpacity=20;" parent="LvrahCDW-8UCbeui2JCp-2" edge="1">
          <mxGeometry relative="1" as="geometry">
            <Array as="points" />
            <mxPoint x="880" y="800" as="sourcePoint" />
            <mxPoint x="880" as="targetPoint" />
          </mxGeometry>
        </mxCell>
        <mxCell id="LvrahCDW-8UCbeui2JCp-7" style="vsdxID=1397;edgeStyle=none;startArrow=none;endArrow=none;startSize=5;endSize=5;strokeColor=#D8D8D8;spacingTop=0;spacingBottom=0;spacingLeft=0;spacingRight=0;verticalAlign=middle;html=1;labelBackgroundColor=#ffffff;rounded=0;fillOpacity=80;strokeOpacity=20;" parent="LvrahCDW-8UCbeui2JCp-2" edge="1">
          <mxGeometry relative="1" as="geometry">
            <Array as="points" />
            <mxPoint x="864" y="800" as="sourcePoint" />
            <mxPoint x="864" as="targetPoint" />
          </mxGeometry>
        </mxCell>
        <mxCell id="LvrahCDW-8UCbeui2JCp-8" style="vsdxID=1398;edgeStyle=none;startArrow=none;endArrow=none;startSize=5;endSize=5;strokeColor=#D8D8D8;spacingTop=0;spacingBottom=0;spacingLeft=0;spacingRight=0;verticalAlign=middle;html=1;labelBackgroundColor=#ffffff;rounded=0;fillOpacity=80;strokeOpacity=20;" parent="LvrahCDW-8UCbeui2JCp-2" edge="1">
          <mxGeometry relative="1" as="geometry">
            <Array as="points" />
            <mxPoint x="848" y="800" as="sourcePoint" />
            <mxPoint x="848" as="targetPoint" />
          </mxGeometry>
        </mxCell>
        <mxCell id="LvrahCDW-8UCbeui2JCp-9" style="vsdxID=1362;edgeStyle=none;startArrow=none;endArrow=none;startSize=5;endSize=5;strokeColor=#D8D8D8;spacingTop=0;spacingBottom=0;spacingLeft=0;spacingRight=0;verticalAlign=middle;html=1;labelBackgroundColor=#ffffff;rounded=0;fillOpacity=80;strokeOpacity=20;" parent="LvrahCDW-8UCbeui2JCp-2" edge="1">
          <mxGeometry relative="1" as="geometry">
            <Array as="points" />
            <mxPoint x="1024" y="800" as="sourcePoint" />
            <mxPoint x="1024" as="targetPoint" />
          </mxGeometry>
        </mxCell>
        <mxCell id="LvrahCDW-8UCbeui2JCp-10" style="vsdxID=1363;edgeStyle=none;startArrow=none;endArrow=none;startSize=5;endSize=5;strokeColor=#D8D8D8;spacingTop=0;spacingBottom=0;spacingLeft=0;spacingRight=0;verticalAlign=middle;html=1;labelBackgroundColor=#ffffff;rounded=0;fillOpacity=80;strokeOpacity=20;" parent="LvrahCDW-8UCbeui2JCp-2" edge="1">
          <mxGeometry relative="1" as="geometry">
            <Array as="points" />
            <mxPoint x="1008" y="800" as="sourcePoint" />
            <mxPoint x="1008" as="targetPoint" />
          </mxGeometry>
        </mxCell>
        <mxCell id="LvrahCDW-8UCbeui2JCp-11" style="vsdxID=1364;edgeStyle=none;startArrow=none;endArrow=none;startSize=5;endSize=5;strokeColor=#D8D8D8;spacingTop=0;spacingBottom=0;spacingLeft=0;spacingRight=0;verticalAlign=middle;html=1;labelBackgroundColor=#ffffff;rounded=0;fillOpacity=80;strokeOpacity=20;" parent="LvrahCDW-8UCbeui2JCp-2" edge="1">
          <mxGeometry relative="1" as="geometry">
            <Array as="points" />
            <mxPoint x="992" y="800" as="sourcePoint" />
            <mxPoint x="992" as="targetPoint" />
          </mxGeometry>
        </mxCell>
        <mxCell id="LvrahCDW-8UCbeui2JCp-12" style="vsdxID=1365;edgeStyle=none;startArrow=none;endArrow=none;startSize=5;endSize=5;strokeColor=#D8D8D8;spacingTop=0;spacingBottom=0;spacingLeft=0;spacingRight=0;verticalAlign=middle;html=1;labelBackgroundColor=#ffffff;rounded=0;fillOpacity=80;strokeOpacity=20;" parent="LvrahCDW-8UCbeui2JCp-2" edge="1">
          <mxGeometry relative="1" as="geometry">
            <Array as="points" />
            <mxPoint x="976" y="800" as="sourcePoint" />
            <mxPoint x="976" as="targetPoint" />
          </mxGeometry>
        </mxCell>
        <mxCell id="LvrahCDW-8UCbeui2JCp-13" style="vsdxID=1366;edgeStyle=none;startArrow=none;endArrow=none;startSize=5;endSize=5;strokeColor=#D8D8D8;spacingTop=0;spacingBottom=0;spacingLeft=0;spacingRight=0;verticalAlign=middle;html=1;labelBackgroundColor=#ffffff;rounded=0;fillOpacity=80;strokeOpacity=20;" parent="LvrahCDW-8UCbeui2JCp-2" edge="1">
          <mxGeometry relative="1" as="geometry">
            <Array as="points" />
            <mxPoint x="944" y="800" as="sourcePoint" />
            <mxPoint x="944" as="targetPoint" />
          </mxGeometry>
        </mxCell>
        <mxCell id="LvrahCDW-8UCbeui2JCp-14" style="vsdxID=1367;edgeStyle=none;startArrow=none;endArrow=none;startSize=5;endSize=5;strokeColor=#D8D8D8;spacingTop=0;spacingBottom=0;spacingLeft=0;spacingRight=0;verticalAlign=middle;html=1;labelBackgroundColor=#ffffff;rounded=0;fillOpacity=80;strokeOpacity=20;" parent="LvrahCDW-8UCbeui2JCp-2" edge="1">
          <mxGeometry relative="1" as="geometry">
            <Array as="points" />
            <mxPoint x="928" y="800" as="sourcePoint" />
            <mxPoint x="928" as="targetPoint" />
          </mxGeometry>
        </mxCell>
        <mxCell id="LvrahCDW-8UCbeui2JCp-15" style="vsdxID=1368;edgeStyle=none;startArrow=none;endArrow=none;startSize=5;endSize=5;strokeColor=#D8D8D8;spacingTop=0;spacingBottom=0;spacingLeft=0;spacingRight=0;verticalAlign=middle;html=1;labelBackgroundColor=#ffffff;rounded=0;fillOpacity=80;strokeOpacity=20;" parent="LvrahCDW-8UCbeui2JCp-2" edge="1">
          <mxGeometry relative="1" as="geometry">
            <Array as="points" />
            <mxPoint x="912" y="800" as="sourcePoint" />
            <mxPoint x="912" as="targetPoint" />
          </mxGeometry>
        </mxCell>
        <mxCell id="LvrahCDW-8UCbeui2JCp-16" style="vsdxID=1369;edgeStyle=none;startArrow=none;endArrow=none;startSize=5;endSize=5;strokeColor=#D8D8D8;spacingTop=0;spacingBottom=0;spacingLeft=0;spacingRight=0;verticalAlign=middle;html=1;labelBackgroundColor=#ffffff;rounded=0;fillOpacity=80;strokeOpacity=20;" parent="LvrahCDW-8UCbeui2JCp-2" edge="1">
          <mxGeometry relative="1" as="geometry">
            <Array as="points" />
            <mxPoint x="896" y="800" as="sourcePoint" />
            <mxPoint x="896" as="targetPoint" />
          </mxGeometry>
        </mxCell>
        <mxCell id="LvrahCDW-8UCbeui2JCp-17" style="vsdxID=1370;edgeStyle=none;startArrow=none;endArrow=none;startSize=5;endSize=5;strokeColor=#0F0F0F;spacingTop=0;spacingBottom=0;spacingLeft=0;spacingRight=0;verticalAlign=middle;html=1;labelBackgroundColor=#ffffff;rounded=0;fillOpacity=80;strokeOpacity=20;" parent="LvrahCDW-8UCbeui2JCp-2" edge="1">
          <mxGeometry relative="1" as="geometry">
            <Array as="points" />
            <mxPoint x="960" y="800" as="sourcePoint" />
            <mxPoint x="960" as="targetPoint" />
          </mxGeometry>
        </mxCell>
        <mxCell id="LvrahCDW-8UCbeui2JCp-18" style="vsdxID=1398;edgeStyle=none;startArrow=none;endArrow=none;startSize=5;endSize=5;strokeColor=#0F0F0F;spacingTop=0;spacingBottom=0;spacingLeft=0;spacingRight=0;verticalAlign=middle;html=1;labelBackgroundColor=#ffffff;rounded=0;fillOpacity=80;strokeOpacity=20;" parent="LvrahCDW-8UCbeui2JCp-2" edge="1">
          <mxGeometry relative="1" as="geometry">
            <Array as="points" />
            <mxPoint x="1040" y="800" as="sourcePoint" />
            <mxPoint x="1040" as="targetPoint" />
          </mxGeometry>
        </mxCell>
        <mxCell id="LvrahCDW-8UCbeui2JCp-19" style="vsdxID=1363;edgeStyle=none;startArrow=none;endArrow=none;startSize=5;endSize=5;strokeColor=#0F0F0F;spacingTop=0;spacingBottom=0;spacingLeft=0;spacingRight=0;verticalAlign=middle;html=1;labelBackgroundColor=#ffffff;rounded=0;fillOpacity=80;strokeOpacity=20;" parent="LvrahCDW-8UCbeui2JCp-2" edge="1">
          <mxGeometry relative="1" as="geometry">
            <Array as="points" />
            <mxPoint x="1120" y="800" as="sourcePoint" />
            <mxPoint x="1120" as="targetPoint" />
          </mxGeometry>
        </mxCell>
        <mxCell id="LvrahCDW-8UCbeui2JCp-20" style="vsdxID=1364;edgeStyle=none;startArrow=none;endArrow=none;startSize=5;endSize=5;strokeColor=#D8D8D8;spacingTop=0;spacingBottom=0;spacingLeft=0;spacingRight=0;verticalAlign=middle;html=1;labelBackgroundColor=#ffffff;rounded=0;fillOpacity=80;strokeOpacity=20;" parent="LvrahCDW-8UCbeui2JCp-2" edge="1">
          <mxGeometry relative="1" as="geometry">
            <Array as="points" />
            <mxPoint x="1104" y="800" as="sourcePoint" />
            <mxPoint x="1104" as="targetPoint" />
          </mxGeometry>
        </mxCell>
        <mxCell id="LvrahCDW-8UCbeui2JCp-21" style="vsdxID=1365;edgeStyle=none;startArrow=none;endArrow=none;startSize=5;endSize=5;strokeColor=#D8D8D8;spacingTop=0;spacingBottom=0;spacingLeft=0;spacingRight=0;verticalAlign=middle;html=1;labelBackgroundColor=#ffffff;rounded=0;fillOpacity=80;strokeOpacity=20;" parent="LvrahCDW-8UCbeui2JCp-2" edge="1">
          <mxGeometry relative="1" as="geometry">
            <Array as="points" />
            <mxPoint x="1088" y="800" as="sourcePoint" />
            <mxPoint x="1088" as="targetPoint" />
          </mxGeometry>
        </mxCell>
        <mxCell id="LvrahCDW-8UCbeui2JCp-22" style="vsdxID=1366;edgeStyle=none;startArrow=none;endArrow=none;startSize=5;endSize=5;strokeColor=#D8D8D8;spacingTop=0;spacingBottom=0;spacingLeft=0;spacingRight=0;verticalAlign=middle;html=1;labelBackgroundColor=#ffffff;rounded=0;fillOpacity=80;strokeOpacity=20;" parent="LvrahCDW-8UCbeui2JCp-2" edge="1">
          <mxGeometry relative="1" as="geometry">
            <Array as="points" />
            <mxPoint x="1056" y="800" as="sourcePoint" />
            <mxPoint x="1056" as="targetPoint" />
          </mxGeometry>
        </mxCell>
        <mxCell id="LvrahCDW-8UCbeui2JCp-23" style="vsdxID=1370;edgeStyle=none;startArrow=none;endArrow=none;startSize=5;endSize=5;strokeColor=#D8D8D8;spacingTop=0;spacingBottom=0;spacingLeft=0;spacingRight=0;verticalAlign=middle;html=1;labelBackgroundColor=#ffffff;rounded=0;fillOpacity=80;strokeOpacity=20;" parent="LvrahCDW-8UCbeui2JCp-2" edge="1">
          <mxGeometry relative="1" as="geometry">
            <Array as="points" />
            <mxPoint x="1072" y="800" as="sourcePoint" />
            <mxPoint x="1072" as="targetPoint" />
          </mxGeometry>
        </mxCell>
        <mxCell id="LvrahCDW-8UCbeui2JCp-24" style="vsdxID=1362;edgeStyle=none;startArrow=none;endArrow=none;startSize=5;endSize=5;strokeColor=#D8D8D8;spacingTop=0;spacingBottom=0;spacingLeft=0;spacingRight=0;verticalAlign=middle;html=1;labelBackgroundColor=#ffffff;rounded=0;fillOpacity=80;strokeOpacity=20;" parent="LvrahCDW-8UCbeui2JCp-2" edge="1">
          <mxGeometry relative="1" as="geometry">
            <Array as="points" />
            <mxPoint x="576" as="sourcePoint" />
            <mxPoint x="576" y="800" as="targetPoint" />
          </mxGeometry>
        </mxCell>
        <mxCell id="LvrahCDW-8UCbeui2JCp-25" style="vsdxID=1363;edgeStyle=none;startArrow=none;endArrow=none;startSize=5;endSize=5;strokeColor=#0F0F0F;spacingTop=0;spacingBottom=0;spacingLeft=0;spacingRight=0;verticalAlign=middle;html=1;labelBackgroundColor=#ffffff;rounded=0;fillOpacity=80;strokeOpacity=20;" parent="LvrahCDW-8UCbeui2JCp-2" edge="1">
          <mxGeometry relative="1" as="geometry">
            <Array as="points" />
            <mxPoint x="560" as="sourcePoint" />
            <mxPoint x="560" y="800" as="targetPoint" />
          </mxGeometry>
        </mxCell>
        <mxCell id="LvrahCDW-8UCbeui2JCp-26" style="vsdxID=1364;edgeStyle=none;startArrow=none;endArrow=none;startSize=5;endSize=5;strokeColor=#D8D8D8;spacingTop=0;spacingBottom=0;spacingLeft=0;spacingRight=0;verticalAlign=middle;html=1;labelBackgroundColor=#ffffff;rounded=0;fillOpacity=80;strokeOpacity=20;" parent="LvrahCDW-8UCbeui2JCp-2" edge="1">
          <mxGeometry relative="1" as="geometry">
            <Array as="points" />
            <mxPoint x="544" as="sourcePoint" />
            <mxPoint x="544" y="800" as="targetPoint" />
          </mxGeometry>
        </mxCell>
        <mxCell id="LvrahCDW-8UCbeui2JCp-27" style="vsdxID=1365;edgeStyle=none;startArrow=none;endArrow=none;startSize=5;endSize=5;strokeColor=#D8D8D8;spacingTop=0;spacingBottom=0;spacingLeft=0;spacingRight=0;verticalAlign=middle;html=1;labelBackgroundColor=#ffffff;rounded=0;fillOpacity=80;strokeOpacity=20;" parent="LvrahCDW-8UCbeui2JCp-2" edge="1">
          <mxGeometry relative="1" as="geometry">
            <Array as="points" />
            <mxPoint x="528" as="sourcePoint" />
            <mxPoint x="528" y="800" as="targetPoint" />
          </mxGeometry>
        </mxCell>
        <mxCell id="LvrahCDW-8UCbeui2JCp-28" style="vsdxID=1366;edgeStyle=none;startArrow=none;endArrow=none;startSize=5;endSize=5;strokeColor=#D8D8D8;spacingTop=0;spacingBottom=0;spacingLeft=0;spacingRight=0;verticalAlign=middle;html=1;labelBackgroundColor=#ffffff;rounded=0;fillOpacity=80;strokeOpacity=20;" parent="LvrahCDW-8UCbeui2JCp-2" edge="1">
          <mxGeometry relative="1" as="geometry">
            <Array as="points" />
            <mxPoint x="496" as="sourcePoint" />
            <mxPoint x="496" y="800" as="targetPoint" />
          </mxGeometry>
        </mxCell>
        <mxCell id="LvrahCDW-8UCbeui2JCp-29" style="vsdxID=1367;edgeStyle=none;startArrow=none;endArrow=none;startSize=5;endSize=5;strokeColor=#0F0F0F;spacingTop=0;spacingBottom=0;spacingLeft=0;spacingRight=0;verticalAlign=middle;html=1;labelBackgroundColor=#ffffff;rounded=0;fillOpacity=80;strokeOpacity=20;" parent="LvrahCDW-8UCbeui2JCp-2" edge="1">
          <mxGeometry relative="1" as="geometry">
            <Array as="points" />
            <mxPoint x="480" as="sourcePoint" />
            <mxPoint x="480" y="800" as="targetPoint" />
          </mxGeometry>
        </mxCell>
        <mxCell id="LvrahCDW-8UCbeui2JCp-30" style="vsdxID=1368;edgeStyle=none;startArrow=none;endArrow=none;startSize=5;endSize=5;strokeColor=#D8D8D8;spacingTop=0;spacingBottom=0;spacingLeft=0;spacingRight=0;verticalAlign=middle;html=1;labelBackgroundColor=#ffffff;rounded=0;fillOpacity=80;strokeOpacity=20;" parent="LvrahCDW-8UCbeui2JCp-2" edge="1">
          <mxGeometry relative="1" as="geometry">
            <Array as="points" />
            <mxPoint x="464" as="sourcePoint" />
            <mxPoint x="464" y="800" as="targetPoint" />
          </mxGeometry>
        </mxCell>
        <mxCell id="LvrahCDW-8UCbeui2JCp-31" style="vsdxID=1369;edgeStyle=none;startArrow=none;endArrow=none;startSize=5;endSize=5;strokeColor=#D8D8D8;spacingTop=0;spacingBottom=0;spacingLeft=0;spacingRight=0;verticalAlign=middle;html=1;labelBackgroundColor=#ffffff;rounded=0;fillOpacity=80;strokeOpacity=20;" parent="LvrahCDW-8UCbeui2JCp-2" edge="1">
          <mxGeometry relative="1" as="geometry">
            <Array as="points" />
            <mxPoint x="448" as="sourcePoint" />
            <mxPoint x="448" y="800" as="targetPoint" />
          </mxGeometry>
        </mxCell>
        <mxCell id="LvrahCDW-8UCbeui2JCp-32" style="vsdxID=1370;edgeStyle=none;startArrow=none;endArrow=none;startSize=5;endSize=5;strokeColor=#D8D8D8;spacingTop=0;spacingBottom=0;spacingLeft=0;spacingRight=0;verticalAlign=middle;html=1;labelBackgroundColor=#ffffff;rounded=0;fillOpacity=80;strokeOpacity=20;" parent="LvrahCDW-8UCbeui2JCp-2" edge="1">
          <mxGeometry relative="1" as="geometry">
            <Array as="points" />
            <mxPoint x="512" as="sourcePoint" />
            <mxPoint x="512" y="800" as="targetPoint" />
          </mxGeometry>
        </mxCell>
        <mxCell id="LvrahCDW-8UCbeui2JCp-33" style="vsdxID=1371;edgeStyle=none;startArrow=none;endArrow=none;startSize=5;endSize=5;strokeColor=#D8D8D8;spacingTop=0;spacingBottom=0;spacingLeft=0;spacingRight=0;verticalAlign=middle;html=1;labelBackgroundColor=#ffffff;rounded=0;fillOpacity=80;strokeOpacity=20;" parent="LvrahCDW-8UCbeui2JCp-2" edge="1">
          <mxGeometry relative="1" as="geometry">
            <Array as="points" />
            <mxPoint x="432" as="sourcePoint" />
            <mxPoint x="432" y="800" as="targetPoint" />
          </mxGeometry>
        </mxCell>
        <mxCell id="LvrahCDW-8UCbeui2JCp-34" style="vsdxID=1372;edgeStyle=none;startArrow=none;endArrow=none;startSize=5;endSize=5;strokeColor=#D8D8D8;spacingTop=0;spacingBottom=0;spacingLeft=0;spacingRight=0;verticalAlign=middle;html=1;labelBackgroundColor=#ffffff;rounded=0;fillOpacity=80;strokeOpacity=20;" parent="LvrahCDW-8UCbeui2JCp-2" edge="1">
          <mxGeometry relative="1" as="geometry">
            <Array as="points" />
            <mxPoint x="416" as="sourcePoint" />
            <mxPoint x="416" y="800" as="targetPoint" />
          </mxGeometry>
        </mxCell>
        <mxCell id="LvrahCDW-8UCbeui2JCp-35" style="vsdxID=1373;edgeStyle=none;startArrow=none;endArrow=none;startSize=5;endSize=5;strokeColor=#0F0F0F;spacingTop=0;spacingBottom=0;spacingLeft=0;spacingRight=0;verticalAlign=middle;html=1;labelBackgroundColor=#ffffff;rounded=0;fillOpacity=80;strokeOpacity=20;" parent="LvrahCDW-8UCbeui2JCp-2" edge="1">
          <mxGeometry relative="1" as="geometry">
            <Array as="points" />
            <mxPoint x="400" as="sourcePoint" />
            <mxPoint x="400" y="800" as="targetPoint" />
          </mxGeometry>
        </mxCell>
        <mxCell id="LvrahCDW-8UCbeui2JCp-36" style="vsdxID=1374;edgeStyle=none;startArrow=none;endArrow=none;startSize=5;endSize=5;strokeColor=#D8D8D8;spacingTop=0;spacingBottom=0;spacingLeft=0;spacingRight=0;verticalAlign=middle;html=1;labelBackgroundColor=#ffffff;rounded=0;fillOpacity=80;strokeOpacity=20;" parent="LvrahCDW-8UCbeui2JCp-2" edge="1">
          <mxGeometry relative="1" as="geometry">
            <Array as="points" />
            <mxPoint x="384" as="sourcePoint" />
            <mxPoint x="384" y="800" as="targetPoint" />
          </mxGeometry>
        </mxCell>
        <mxCell id="LvrahCDW-8UCbeui2JCp-37" style="vsdxID=1375;edgeStyle=none;startArrow=none;endArrow=none;startSize=5;endSize=5;strokeColor=#D8D8D8;spacingTop=0;spacingBottom=0;spacingLeft=0;spacingRight=0;verticalAlign=middle;html=1;labelBackgroundColor=#ffffff;rounded=0;fillOpacity=80;strokeOpacity=20;" parent="LvrahCDW-8UCbeui2JCp-2" edge="1">
          <mxGeometry relative="1" as="geometry">
            <Array as="points" />
            <mxPoint x="352" as="sourcePoint" />
            <mxPoint x="352" y="800" as="targetPoint" />
          </mxGeometry>
        </mxCell>
        <mxCell id="LvrahCDW-8UCbeui2JCp-38" style="vsdxID=1376;edgeStyle=none;startArrow=none;endArrow=none;startSize=5;endSize=5;strokeColor=#D8D8D8;spacingTop=0;spacingBottom=0;spacingLeft=0;spacingRight=0;verticalAlign=middle;html=1;labelBackgroundColor=#ffffff;rounded=0;fillOpacity=80;strokeOpacity=20;" parent="LvrahCDW-8UCbeui2JCp-2" edge="1">
          <mxGeometry relative="1" as="geometry">
            <Array as="points" />
            <mxPoint x="336" as="sourcePoint" />
            <mxPoint x="336" y="800" as="targetPoint" />
          </mxGeometry>
        </mxCell>
        <mxCell id="LvrahCDW-8UCbeui2JCp-39" style="vsdxID=1377;edgeStyle=none;startArrow=none;endArrow=none;startSize=5;endSize=5;strokeColor=#0F0F0F;spacingTop=0;spacingBottom=0;spacingLeft=0;spacingRight=0;verticalAlign=middle;html=1;labelBackgroundColor=#ffffff;rounded=0;fillOpacity=80;strokeOpacity=20;" parent="LvrahCDW-8UCbeui2JCp-2" edge="1">
          <mxGeometry relative="1" as="geometry">
            <Array as="points" />
            <mxPoint x="320" as="sourcePoint" />
            <mxPoint x="320" y="800" as="targetPoint" />
          </mxGeometry>
        </mxCell>
        <mxCell id="LvrahCDW-8UCbeui2JCp-40" style="vsdxID=1378;edgeStyle=none;startArrow=none;endArrow=none;startSize=5;endSize=5;strokeColor=#D8D8D8;spacingTop=0;spacingBottom=0;spacingLeft=0;spacingRight=0;verticalAlign=middle;html=1;labelBackgroundColor=#ffffff;rounded=0;fillOpacity=80;strokeOpacity=20;" parent="LvrahCDW-8UCbeui2JCp-2" edge="1">
          <mxGeometry relative="1" as="geometry">
            <Array as="points" />
            <mxPoint x="304" as="sourcePoint" />
            <mxPoint x="304" y="800" as="targetPoint" />
          </mxGeometry>
        </mxCell>
        <mxCell id="LvrahCDW-8UCbeui2JCp-41" style="vsdxID=1379;edgeStyle=none;startArrow=none;endArrow=none;startSize=5;endSize=5;strokeColor=#D8D8D8;spacingTop=0;spacingBottom=0;spacingLeft=0;spacingRight=0;verticalAlign=middle;html=1;labelBackgroundColor=#ffffff;rounded=0;fillOpacity=80;strokeOpacity=20;" parent="LvrahCDW-8UCbeui2JCp-2" edge="1">
          <mxGeometry relative="1" as="geometry">
            <Array as="points" />
            <mxPoint x="368" as="sourcePoint" />
            <mxPoint x="368" y="800" as="targetPoint" />
          </mxGeometry>
        </mxCell>
        <mxCell id="LvrahCDW-8UCbeui2JCp-42" style="vsdxID=1380;edgeStyle=none;startArrow=none;endArrow=none;startSize=5;endSize=5;strokeColor=#D8D8D8;spacingTop=0;spacingBottom=0;spacingLeft=0;spacingRight=0;verticalAlign=middle;html=1;labelBackgroundColor=#ffffff;rounded=0;fillOpacity=80;strokeOpacity=20;" parent="LvrahCDW-8UCbeui2JCp-2" edge="1">
          <mxGeometry relative="1" as="geometry">
            <Array as="points" />
            <mxPoint x="288" as="sourcePoint" />
            <mxPoint x="288" y="800" as="targetPoint" />
          </mxGeometry>
        </mxCell>
        <mxCell id="LvrahCDW-8UCbeui2JCp-43" style="vsdxID=1381;edgeStyle=none;startArrow=none;endArrow=none;startSize=5;endSize=5;strokeColor=#D8D8D8;spacingTop=0;spacingBottom=0;spacingLeft=0;spacingRight=0;verticalAlign=middle;html=1;labelBackgroundColor=#ffffff;rounded=0;fillOpacity=80;strokeOpacity=20;" parent="LvrahCDW-8UCbeui2JCp-2" edge="1">
          <mxGeometry relative="1" as="geometry">
            <Array as="points" />
            <mxPoint x="272" as="sourcePoint" />
            <mxPoint x="272" y="800" as="targetPoint" />
          </mxGeometry>
        </mxCell>
        <mxCell id="LvrahCDW-8UCbeui2JCp-44" style="vsdxID=1382;edgeStyle=none;startArrow=none;endArrow=none;startSize=5;endSize=5;strokeColor=#D8D8D8;spacingTop=0;spacingBottom=0;spacingLeft=0;spacingRight=0;verticalAlign=middle;html=1;labelBackgroundColor=#ffffff;rounded=0;fillOpacity=80;strokeOpacity=20;" parent="LvrahCDW-8UCbeui2JCp-2" edge="1">
          <mxGeometry relative="1" as="geometry">
            <Array as="points" />
            <mxPoint x="256" as="sourcePoint" />
            <mxPoint x="256" y="800" as="targetPoint" />
          </mxGeometry>
        </mxCell>
        <mxCell id="LvrahCDW-8UCbeui2JCp-45" style="vsdxID=1383;edgeStyle=none;startArrow=none;endArrow=none;startSize=5;endSize=5;strokeColor=#0F0F0F;spacingTop=0;spacingBottom=0;spacingLeft=0;spacingRight=0;verticalAlign=middle;html=1;labelBackgroundColor=#ffffff;rounded=0;fillOpacity=80;strokeOpacity=20;" parent="LvrahCDW-8UCbeui2JCp-2" edge="1">
          <mxGeometry relative="1" as="geometry">
            <Array as="points" />
            <mxPoint x="240" as="sourcePoint" />
            <mxPoint x="240" y="800" as="targetPoint" />
          </mxGeometry>
        </mxCell>
        <mxCell id="LvrahCDW-8UCbeui2JCp-46" style="vsdxID=1384;edgeStyle=none;startArrow=none;endArrow=none;startSize=5;endSize=5;strokeColor=#D8D8D8;spacingTop=0;spacingBottom=0;spacingLeft=0;spacingRight=0;verticalAlign=middle;html=1;labelBackgroundColor=#ffffff;rounded=0;fillOpacity=80;strokeOpacity=20;" parent="LvrahCDW-8UCbeui2JCp-2" edge="1">
          <mxGeometry relative="1" as="geometry">
            <Array as="points" />
            <mxPoint x="208" as="sourcePoint" />
            <mxPoint x="208" y="800" as="targetPoint" />
          </mxGeometry>
        </mxCell>
        <mxCell id="LvrahCDW-8UCbeui2JCp-47" style="vsdxID=1385;edgeStyle=none;startArrow=none;endArrow=none;startSize=5;endSize=5;strokeColor=#D8D8D8;spacingTop=0;spacingBottom=0;spacingLeft=0;spacingRight=0;verticalAlign=middle;html=1;labelBackgroundColor=#ffffff;rounded=0;fillOpacity=80;strokeOpacity=20;" parent="LvrahCDW-8UCbeui2JCp-2" edge="1">
          <mxGeometry relative="1" as="geometry">
            <Array as="points" />
            <mxPoint x="192" as="sourcePoint" />
            <mxPoint x="192" y="800" as="targetPoint" />
          </mxGeometry>
        </mxCell>
        <mxCell id="LvrahCDW-8UCbeui2JCp-48" style="vsdxID=1386;edgeStyle=none;startArrow=none;endArrow=none;startSize=5;endSize=5;strokeColor=#D8D8D8;spacingTop=0;spacingBottom=0;spacingLeft=0;spacingRight=0;verticalAlign=middle;html=1;labelBackgroundColor=#ffffff;rounded=0;fillOpacity=80;strokeOpacity=20;" parent="LvrahCDW-8UCbeui2JCp-2" edge="1">
          <mxGeometry relative="1" as="geometry">
            <Array as="points" />
            <mxPoint x="176" as="sourcePoint" />
            <mxPoint x="176" y="800" as="targetPoint" />
          </mxGeometry>
        </mxCell>
        <mxCell id="LvrahCDW-8UCbeui2JCp-49" style="vsdxID=1387;edgeStyle=none;startArrow=none;endArrow=none;startSize=5;endSize=5;strokeColor=#0F0F0F;spacingTop=0;spacingBottom=0;spacingLeft=0;spacingRight=0;verticalAlign=middle;html=1;labelBackgroundColor=#ffffff;rounded=0;fillOpacity=80;strokeOpacity=20;" parent="LvrahCDW-8UCbeui2JCp-2" edge="1">
          <mxGeometry relative="1" as="geometry">
            <Array as="points" />
            <mxPoint x="160" as="sourcePoint" />
            <mxPoint x="160" y="800" as="targetPoint" />
          </mxGeometry>
        </mxCell>
        <mxCell id="LvrahCDW-8UCbeui2JCp-50" style="vsdxID=1388;edgeStyle=none;startArrow=none;endArrow=none;startSize=5;endSize=5;strokeColor=#D8D8D8;spacingTop=0;spacingBottom=0;spacingLeft=0;spacingRight=0;verticalAlign=middle;html=1;labelBackgroundColor=#ffffff;rounded=0;fillOpacity=80;strokeOpacity=20;" parent="LvrahCDW-8UCbeui2JCp-2" edge="1">
          <mxGeometry relative="1" as="geometry">
            <Array as="points" />
            <mxPoint x="224" as="sourcePoint" />
            <mxPoint x="224" y="800" as="targetPoint" />
          </mxGeometry>
        </mxCell>
        <mxCell id="LvrahCDW-8UCbeui2JCp-51" style="vsdxID=1389;edgeStyle=none;startArrow=none;endArrow=none;startSize=5;endSize=5;strokeColor=#D8D8D8;spacingTop=0;spacingBottom=0;spacingLeft=0;spacingRight=0;verticalAlign=middle;html=1;labelBackgroundColor=#ffffff;rounded=0;fillOpacity=80;strokeOpacity=20;" parent="LvrahCDW-8UCbeui2JCp-2" edge="1">
          <mxGeometry relative="1" as="geometry">
            <Array as="points" />
            <mxPoint x="144" as="sourcePoint" />
            <mxPoint x="144" y="800" as="targetPoint" />
          </mxGeometry>
        </mxCell>
        <mxCell id="LvrahCDW-8UCbeui2JCp-52" style="vsdxID=1390;edgeStyle=none;startArrow=none;endArrow=none;startSize=5;endSize=5;strokeColor=#D8D8D8;spacingTop=0;spacingBottom=0;spacingLeft=0;spacingRight=0;verticalAlign=middle;html=1;labelBackgroundColor=#ffffff;rounded=0;fillOpacity=80;strokeOpacity=20;" parent="LvrahCDW-8UCbeui2JCp-2" edge="1">
          <mxGeometry relative="1" as="geometry">
            <Array as="points" />
            <mxPoint x="128" as="sourcePoint" />
            <mxPoint x="128" y="800" as="targetPoint" />
          </mxGeometry>
        </mxCell>
        <mxCell id="LvrahCDW-8UCbeui2JCp-53" style="vsdxID=1391;edgeStyle=none;startArrow=none;endArrow=none;startSize=5;endSize=5;strokeColor=#D8D8D8;spacingTop=0;spacingBottom=0;spacingLeft=0;spacingRight=0;verticalAlign=middle;html=1;labelBackgroundColor=#ffffff;rounded=0;fillOpacity=80;strokeOpacity=20;" parent="LvrahCDW-8UCbeui2JCp-2" edge="1">
          <mxGeometry relative="1" as="geometry">
            <Array as="points" />
            <mxPoint x="112" as="sourcePoint" />
            <mxPoint x="112" y="800" as="targetPoint" />
          </mxGeometry>
        </mxCell>
        <mxCell id="LvrahCDW-8UCbeui2JCp-54" style="vsdxID=1392;edgeStyle=none;startArrow=none;endArrow=none;startSize=5;endSize=5;strokeColor=#D8D8D8;spacingTop=0;spacingBottom=0;spacingLeft=0;spacingRight=0;verticalAlign=middle;html=1;labelBackgroundColor=#ffffff;rounded=0;fillOpacity=80;strokeOpacity=20;" parent="LvrahCDW-8UCbeui2JCp-2" edge="1">
          <mxGeometry relative="1" as="geometry">
            <mxPoint x="-1" as="offset" />
            <Array as="points" />
            <mxPoint x="48" as="sourcePoint" />
            <mxPoint x="48" y="800" as="targetPoint" />
          </mxGeometry>
        </mxCell>
        <mxCell id="LvrahCDW-8UCbeui2JCp-55" style="vsdxID=1393;edgeStyle=none;startArrow=none;endArrow=none;startSize=5;endSize=5;strokeColor=#D8D8D8;spacingTop=0;spacingBottom=0;spacingLeft=0;spacingRight=0;verticalAlign=middle;html=1;labelBackgroundColor=#ffffff;rounded=0;fillOpacity=80;strokeOpacity=20;" parent="LvrahCDW-8UCbeui2JCp-2" edge="1">
          <mxGeometry relative="1" as="geometry">
            <Array as="points" />
            <mxPoint x="64" as="sourcePoint" />
            <mxPoint x="64" y="800" as="targetPoint" />
          </mxGeometry>
        </mxCell>
        <mxCell id="LvrahCDW-8UCbeui2JCp-56" style="vsdxID=1394;edgeStyle=none;startArrow=none;endArrow=none;startSize=5;endSize=5;strokeColor=#D8D8D8;spacingTop=0;spacingBottom=0;spacingLeft=0;spacingRight=0;verticalAlign=middle;html=1;labelBackgroundColor=#ffffff;rounded=0;fillOpacity=80;strokeOpacity=20;" parent="LvrahCDW-8UCbeui2JCp-2" edge="1">
          <mxGeometry relative="1" as="geometry">
            <mxPoint as="offset" />
            <Array as="points" />
            <mxPoint x="16" as="sourcePoint" />
            <mxPoint x="16" y="800" as="targetPoint" />
          </mxGeometry>
        </mxCell>
        <mxCell id="LvrahCDW-8UCbeui2JCp-57" style="vsdxID=1395;edgeStyle=none;startArrow=none;endArrow=none;startSize=5;endSize=5;strokeColor=#0F0F0F;spacingTop=0;spacingBottom=0;spacingLeft=0;spacingRight=0;verticalAlign=middle;html=1;labelBackgroundColor=#ffffff;rounded=0;fillOpacity=80;strokeOpacity=20;" parent="LvrahCDW-8UCbeui2JCp-2" edge="1">
          <mxGeometry relative="1" as="geometry">
            <Array as="points" />
            <mxPoint x="80" as="sourcePoint" />
            <mxPoint x="80" y="800" as="targetPoint" />
          </mxGeometry>
        </mxCell>
        <mxCell id="LvrahCDW-8UCbeui2JCp-58" style="vsdxID=1396;edgeStyle=none;startArrow=none;endArrow=none;startSize=5;endSize=5;strokeColor=#D8D8D8;spacingTop=0;spacingBottom=0;spacingLeft=0;spacingRight=0;verticalAlign=middle;html=1;labelBackgroundColor=#ffffff;rounded=0;fillOpacity=80;strokeOpacity=20;" parent="LvrahCDW-8UCbeui2JCp-2" edge="1">
          <mxGeometry relative="1" as="geometry">
            <Array as="points" />
            <mxPoint x="624" as="sourcePoint" />
            <mxPoint x="624" y="800" as="targetPoint" />
          </mxGeometry>
        </mxCell>
        <mxCell id="LvrahCDW-8UCbeui2JCp-59" style="vsdxID=1397;edgeStyle=none;startArrow=none;endArrow=none;startSize=5;endSize=5;strokeColor=#D8D8D8;spacingTop=0;spacingBottom=0;spacingLeft=0;spacingRight=0;verticalAlign=middle;html=1;labelBackgroundColor=#ffffff;rounded=0;fillOpacity=80;strokeOpacity=20;" parent="LvrahCDW-8UCbeui2JCp-2" edge="1">
          <mxGeometry relative="1" as="geometry">
            <Array as="points" />
            <mxPoint x="608" as="sourcePoint" />
            <mxPoint x="608" y="800" as="targetPoint" />
          </mxGeometry>
        </mxCell>
        <mxCell id="LvrahCDW-8UCbeui2JCp-60" style="vsdxID=1398;edgeStyle=none;startArrow=none;endArrow=none;startSize=5;endSize=5;strokeColor=#D8D8D8;spacingTop=0;spacingBottom=0;spacingLeft=0;spacingRight=0;verticalAlign=middle;html=1;labelBackgroundColor=#ffffff;rounded=0;fillOpacity=80;strokeOpacity=20;" parent="LvrahCDW-8UCbeui2JCp-2" edge="1">
          <mxGeometry relative="1" as="geometry">
            <Array as="points" />
            <mxPoint x="592" as="sourcePoint" />
            <mxPoint x="592" y="800" as="targetPoint" />
          </mxGeometry>
        </mxCell>
        <mxCell id="LvrahCDW-8UCbeui2JCp-61" style="vsdxID=1399;edgeStyle=none;startArrow=none;endArrow=none;startSize=5;endSize=5;strokeColor=#D8D8D8;spacingTop=0;spacingBottom=0;spacingLeft=0;spacingRight=0;verticalAlign=middle;html=1;labelBackgroundColor=#ffffff;rounded=0;fillOpacity=80;strokeOpacity=20;" parent="LvrahCDW-8UCbeui2JCp-2" edge="1">
          <mxGeometry relative="1" as="geometry">
            <Array as="points" />
            <mxPoint x="96" as="sourcePoint" />
            <mxPoint x="96" y="800" as="targetPoint" />
          </mxGeometry>
        </mxCell>
        <mxCell id="LvrahCDW-8UCbeui2JCp-62" style="vsdxID=1403;edgeStyle=none;startArrow=none;endArrow=none;startSize=5;endSize=5;strokeColor=#D8D8D8;spacingTop=0;spacingBottom=0;spacingLeft=0;spacingRight=0;verticalAlign=middle;html=1;labelBackgroundColor=#ffffff;rounded=0;fillOpacity=80;strokeOpacity=20;" parent="LvrahCDW-8UCbeui2JCp-2" edge="1">
          <mxGeometry relative="1" as="geometry">
            <Array as="points" />
            <mxPoint x="32" as="sourcePoint" />
            <mxPoint x="32" y="800" as="targetPoint" />
          </mxGeometry>
        </mxCell>
        <mxCell id="LvrahCDW-8UCbeui2JCp-63" style="vsdxID=1362;edgeStyle=none;startArrow=none;endArrow=none;startSize=5;endSize=5;strokeColor=#D8D8D8;spacingTop=0;spacingBottom=0;spacingLeft=0;spacingRight=0;verticalAlign=middle;html=1;labelBackgroundColor=#ffffff;rounded=0;fillOpacity=80;strokeOpacity=20;" parent="LvrahCDW-8UCbeui2JCp-2" edge="1">
          <mxGeometry relative="1" as="geometry">
            <Array as="points" />
            <mxPoint x="768" as="sourcePoint" />
            <mxPoint x="768" y="800" as="targetPoint" />
          </mxGeometry>
        </mxCell>
        <mxCell id="LvrahCDW-8UCbeui2JCp-64" style="vsdxID=1363;edgeStyle=none;startArrow=none;endArrow=none;startSize=5;endSize=5;strokeColor=#D8D8D8;spacingTop=0;spacingBottom=0;spacingLeft=0;spacingRight=0;verticalAlign=middle;html=1;labelBackgroundColor=#ffffff;rounded=0;fillOpacity=80;strokeOpacity=20;" parent="LvrahCDW-8UCbeui2JCp-2" edge="1">
          <mxGeometry relative="1" as="geometry">
            <Array as="points" />
            <mxPoint x="752" as="sourcePoint" />
            <mxPoint x="752" y="800" as="targetPoint" />
          </mxGeometry>
        </mxCell>
        <mxCell id="LvrahCDW-8UCbeui2JCp-65" style="vsdxID=1364;edgeStyle=none;startArrow=none;endArrow=none;startSize=5;endSize=5;strokeColor=#D8D8D8;spacingTop=0;spacingBottom=0;spacingLeft=0;spacingRight=0;verticalAlign=middle;html=1;labelBackgroundColor=#ffffff;rounded=0;fillOpacity=80;strokeOpacity=20;" parent="LvrahCDW-8UCbeui2JCp-2" edge="1">
          <mxGeometry relative="1" as="geometry">
            <Array as="points" />
            <mxPoint x="736" as="sourcePoint" />
            <mxPoint x="736" y="800" as="targetPoint" />
          </mxGeometry>
        </mxCell>
        <mxCell id="LvrahCDW-8UCbeui2JCp-66" style="vsdxID=1365;edgeStyle=none;startArrow=none;endArrow=none;startSize=5;endSize=5;strokeColor=#0F0F0F;spacingTop=0;spacingBottom=0;spacingLeft=0;spacingRight=0;verticalAlign=middle;html=1;labelBackgroundColor=#ffffff;rounded=0;fillOpacity=80;strokeOpacity=20;" parent="LvrahCDW-8UCbeui2JCp-2" edge="1">
          <mxGeometry relative="1" as="geometry">
            <Array as="points" />
            <mxPoint x="720" as="sourcePoint" />
            <mxPoint x="720" y="800" as="targetPoint" />
          </mxGeometry>
        </mxCell>
        <mxCell id="LvrahCDW-8UCbeui2JCp-67" style="vsdxID=1366;edgeStyle=none;startArrow=none;endArrow=none;startSize=5;endSize=5;strokeColor=#D8D8D8;spacingTop=0;spacingBottom=0;spacingLeft=0;spacingRight=0;verticalAlign=middle;html=1;labelBackgroundColor=#ffffff;rounded=0;fillOpacity=80;strokeOpacity=20;" parent="LvrahCDW-8UCbeui2JCp-2" edge="1">
          <mxGeometry relative="1" as="geometry">
            <Array as="points" />
            <mxPoint x="688" as="sourcePoint" />
            <mxPoint x="688" y="800" as="targetPoint" />
          </mxGeometry>
        </mxCell>
        <mxCell id="LvrahCDW-8UCbeui2JCp-68" style="vsdxID=1367;edgeStyle=none;startArrow=none;endArrow=none;startSize=5;endSize=5;strokeColor=#D8D8D8;spacingTop=0;spacingBottom=0;spacingLeft=0;spacingRight=0;verticalAlign=middle;html=1;labelBackgroundColor=#ffffff;rounded=0;fillOpacity=80;strokeOpacity=20;" parent="LvrahCDW-8UCbeui2JCp-2" edge="1">
          <mxGeometry relative="1" as="geometry">
            <Array as="points" />
            <mxPoint x="672" as="sourcePoint" />
            <mxPoint x="672" y="800" as="targetPoint" />
          </mxGeometry>
        </mxCell>
        <mxCell id="LvrahCDW-8UCbeui2JCp-69" style="vsdxID=1368;edgeStyle=none;startArrow=none;endArrow=none;startSize=5;endSize=5;strokeColor=#D8D8D8;spacingTop=0;spacingBottom=0;spacingLeft=0;spacingRight=0;verticalAlign=middle;html=1;labelBackgroundColor=#ffffff;rounded=0;fillOpacity=80;strokeOpacity=20;" parent="LvrahCDW-8UCbeui2JCp-2" edge="1">
          <mxGeometry relative="1" as="geometry">
            <Array as="points" />
            <mxPoint x="656" as="sourcePoint" />
            <mxPoint x="656" y="800" as="targetPoint" />
          </mxGeometry>
        </mxCell>
        <mxCell id="LvrahCDW-8UCbeui2JCp-70" style="vsdxID=1369;edgeStyle=none;startArrow=none;endArrow=none;startSize=5;endSize=5;strokeColor=#0F0F0F;spacingTop=0;spacingBottom=0;spacingLeft=0;spacingRight=0;verticalAlign=middle;html=1;labelBackgroundColor=#ffffff;rounded=0;fillOpacity=80;strokeOpacity=20;" parent="LvrahCDW-8UCbeui2JCp-2" edge="1">
          <mxGeometry relative="1" as="geometry">
            <Array as="points" />
            <mxPoint x="640" as="sourcePoint" />
            <mxPoint x="640" y="800" as="targetPoint" />
          </mxGeometry>
        </mxCell>
        <mxCell id="LvrahCDW-8UCbeui2JCp-71" style="vsdxID=1370;edgeStyle=none;startArrow=none;endArrow=none;startSize=5;endSize=5;strokeColor=#D8D8D8;spacingTop=0;spacingBottom=0;spacingLeft=0;spacingRight=0;verticalAlign=middle;html=1;labelBackgroundColor=#ffffff;rounded=0;fillOpacity=80;strokeOpacity=20;" parent="LvrahCDW-8UCbeui2JCp-2" edge="1">
          <mxGeometry relative="1" as="geometry">
            <Array as="points" />
            <mxPoint x="704" as="sourcePoint" />
            <mxPoint x="704" y="800" as="targetPoint" />
          </mxGeometry>
        </mxCell>
        <mxCell id="LvrahCDW-8UCbeui2JCp-72" style="vsdxID=1398;edgeStyle=none;startArrow=none;endArrow=none;startSize=5;endSize=5;strokeColor=#D8D8D8;spacingTop=0;spacingBottom=0;spacingLeft=0;spacingRight=0;verticalAlign=middle;html=1;labelBackgroundColor=#ffffff;rounded=0;fillOpacity=80;strokeOpacity=20;" parent="LvrahCDW-8UCbeui2JCp-2" edge="1">
          <mxGeometry relative="1" as="geometry">
            <Array as="points" />
            <mxPoint x="784" as="sourcePoint" />
            <mxPoint x="784" y="800" as="targetPoint" />
          </mxGeometry>
        </mxCell>
        <mxCell id="LvrahCDW-8UCbeui2JCp-73" style="vsdxID=1309;edgeStyle=none;startArrow=none;endArrow=none;startSize=5;endSize=5;strokeColor=#d8d8d8;spacingTop=0;spacingBottom=0;spacingLeft=0;spacingRight=0;verticalAlign=middle;html=1;labelBackgroundColor=#ffffff;rounded=0;fillOpacity=80;strokeOpacity=20;" parent="LvrahCDW-8UCbeui2JCp-2" edge="1">
          <mxGeometry relative="1" as="geometry">
            <Array as="points" />
            <mxPoint y="48" as="sourcePoint" />
            <mxPoint x="1136" y="48" as="targetPoint" />
          </mxGeometry>
        </mxCell>
        <mxCell id="LvrahCDW-8UCbeui2JCp-74" style="vsdxID=1310;edgeStyle=none;startArrow=none;endArrow=none;startSize=5;endSize=5;strokeColor=#7f7f7f;spacingTop=0;spacingBottom=0;spacingLeft=0;spacingRight=0;verticalAlign=middle;html=1;labelBackgroundColor=#ffffff;rounded=0;fillOpacity=80;strokeOpacity=20;" parent="LvrahCDW-8UCbeui2JCp-2" edge="1">
          <mxGeometry relative="1" as="geometry">
            <Array as="points" />
            <mxPoint y="80" as="sourcePoint" />
            <mxPoint x="1136" y="80" as="targetPoint" />
          </mxGeometry>
        </mxCell>
        <mxCell id="LvrahCDW-8UCbeui2JCp-75" style="vsdxID=1311;edgeStyle=none;startArrow=none;endArrow=none;startSize=5;endSize=5;strokeColor=#d8d8d8;spacingTop=0;spacingBottom=0;spacingLeft=0;spacingRight=0;verticalAlign=middle;html=1;labelBackgroundColor=#ffffff;rounded=0;fillOpacity=80;strokeOpacity=20;" parent="LvrahCDW-8UCbeui2JCp-2" edge="1">
          <mxGeometry relative="1" as="geometry">
            <Array as="points" />
            <mxPoint y="96" as="sourcePoint" />
            <mxPoint x="1136" y="96" as="targetPoint" />
          </mxGeometry>
        </mxCell>
        <mxCell id="LvrahCDW-8UCbeui2JCp-76" style="vsdxID=1312;edgeStyle=none;startArrow=none;endArrow=none;startSize=5;endSize=5;strokeColor=#d8d8d8;spacingTop=0;spacingBottom=0;spacingLeft=0;spacingRight=0;verticalAlign=middle;html=1;labelBackgroundColor=#ffffff;rounded=0;fillOpacity=80;strokeOpacity=20;" parent="LvrahCDW-8UCbeui2JCp-2" edge="1">
          <mxGeometry relative="1" as="geometry">
            <Array as="points" />
            <mxPoint y="112" as="sourcePoint" />
            <mxPoint x="1136" y="112" as="targetPoint" />
          </mxGeometry>
        </mxCell>
        <mxCell id="LvrahCDW-8UCbeui2JCp-77" style="vsdxID=1313;edgeStyle=none;startArrow=none;endArrow=none;startSize=5;endSize=5;strokeColor=#d8d8d8;spacingTop=0;spacingBottom=0;spacingLeft=0;spacingRight=0;verticalAlign=middle;html=1;labelBackgroundColor=#ffffff;rounded=0;fillOpacity=80;strokeOpacity=20;" parent="LvrahCDW-8UCbeui2JCp-2" edge="1">
          <mxGeometry relative="1" as="geometry">
            <Array as="points" />
            <mxPoint y="128" as="sourcePoint" />
            <mxPoint x="1136" y="128" as="targetPoint" />
          </mxGeometry>
        </mxCell>
        <mxCell id="LvrahCDW-8UCbeui2JCp-78" style="vsdxID=1314;edgeStyle=none;startArrow=none;endArrow=none;startSize=5;endSize=5;strokeColor=#d8d8d8;spacingTop=0;spacingBottom=0;spacingLeft=0;spacingRight=0;verticalAlign=middle;html=1;labelBackgroundColor=#ffffff;rounded=0;fillOpacity=80;strokeOpacity=20;" parent="LvrahCDW-8UCbeui2JCp-2" edge="1">
          <mxGeometry relative="1" as="geometry">
            <Array as="points" />
            <mxPoint y="64" as="sourcePoint" />
            <mxPoint x="1136" y="64" as="targetPoint" />
          </mxGeometry>
        </mxCell>
        <mxCell id="LvrahCDW-8UCbeui2JCp-79" style="vsdxID=1315;edgeStyle=none;startArrow=none;endArrow=none;startSize=5;endSize=5;strokeColor=#d8d8d8;spacingTop=0;spacingBottom=0;spacingLeft=0;spacingRight=0;verticalAlign=middle;html=1;labelBackgroundColor=#ffffff;rounded=0;fillOpacity=80;strokeOpacity=20;" parent="LvrahCDW-8UCbeui2JCp-2" edge="1">
          <mxGeometry relative="1" as="geometry">
            <Array as="points" />
            <mxPoint y="144" as="sourcePoint" />
            <mxPoint x="1136" y="144" as="targetPoint" />
          </mxGeometry>
        </mxCell>
        <mxCell id="LvrahCDW-8UCbeui2JCp-80" style="vsdxID=1316;edgeStyle=none;startArrow=none;endArrow=none;startSize=5;endSize=5;strokeColor=#7f7f7f;spacingTop=0;spacingBottom=0;spacingLeft=0;spacingRight=0;verticalAlign=middle;html=1;labelBackgroundColor=#ffffff;rounded=0;fillOpacity=80;strokeOpacity=20;" parent="LvrahCDW-8UCbeui2JCp-2" edge="1">
          <mxGeometry relative="1" as="geometry">
            <Array as="points" />
            <mxPoint y="160" as="sourcePoint" />
            <mxPoint x="1136" y="160" as="targetPoint" />
          </mxGeometry>
        </mxCell>
        <mxCell id="LvrahCDW-8UCbeui2JCp-81" style="vsdxID=1317;edgeStyle=none;startArrow=none;endArrow=none;startSize=5;endSize=5;strokeColor=#d8d8d8;spacingTop=0;spacingBottom=0;spacingLeft=0;spacingRight=0;verticalAlign=middle;html=1;labelBackgroundColor=#ffffff;rounded=0;fillOpacity=80;strokeOpacity=20;" parent="LvrahCDW-8UCbeui2JCp-2" edge="1">
          <mxGeometry relative="1" as="geometry">
            <Array as="points" />
            <mxPoint y="176" as="sourcePoint" />
            <mxPoint x="1136" y="176" as="targetPoint" />
          </mxGeometry>
        </mxCell>
        <mxCell id="LvrahCDW-8UCbeui2JCp-82" style="vsdxID=1318;edgeStyle=none;startArrow=none;endArrow=none;startSize=5;endSize=5;strokeColor=#d8d8d8;spacingTop=0;spacingBottom=0;spacingLeft=0;spacingRight=0;verticalAlign=middle;html=1;labelBackgroundColor=#ffffff;rounded=0;fillOpacity=80;strokeOpacity=20;" parent="LvrahCDW-8UCbeui2JCp-2" edge="1">
          <mxGeometry relative="1" as="geometry">
            <Array as="points" />
            <mxPoint y="192" as="sourcePoint" />
            <mxPoint x="1136" y="192" as="targetPoint" />
          </mxGeometry>
        </mxCell>
        <mxCell id="LvrahCDW-8UCbeui2JCp-83" style="vsdxID=1319;edgeStyle=none;startArrow=none;endArrow=none;startSize=5;endSize=5;strokeColor=#d8d8d8;spacingTop=0;spacingBottom=0;spacingLeft=0;spacingRight=0;verticalAlign=middle;html=1;labelBackgroundColor=#ffffff;rounded=0;fillOpacity=80;strokeOpacity=20;" parent="LvrahCDW-8UCbeui2JCp-2" edge="1">
          <mxGeometry relative="1" as="geometry">
            <Array as="points" />
            <mxPoint y="224" as="sourcePoint" />
            <mxPoint x="1136" y="224" as="targetPoint" />
          </mxGeometry>
        </mxCell>
        <mxCell id="LvrahCDW-8UCbeui2JCp-84" style="vsdxID=1320;edgeStyle=none;startArrow=none;endArrow=none;startSize=5;endSize=5;strokeColor=#7f7f7f;spacingTop=0;spacingBottom=0;spacingLeft=0;spacingRight=0;verticalAlign=middle;html=1;labelBackgroundColor=#ffffff;rounded=0;fillOpacity=80;strokeOpacity=20;" parent="LvrahCDW-8UCbeui2JCp-2" edge="1">
          <mxGeometry relative="1" as="geometry">
            <Array as="points" />
            <mxPoint y="240" as="sourcePoint" />
            <mxPoint x="1136" y="240" as="targetPoint" />
          </mxGeometry>
        </mxCell>
        <mxCell id="LvrahCDW-8UCbeui2JCp-85" style="vsdxID=1321;edgeStyle=none;startArrow=none;endArrow=none;startSize=5;endSize=5;strokeColor=#d8d8d8;spacingTop=0;spacingBottom=0;spacingLeft=0;spacingRight=0;verticalAlign=middle;html=1;labelBackgroundColor=#ffffff;rounded=0;fillOpacity=80;strokeOpacity=20;" parent="LvrahCDW-8UCbeui2JCp-2" edge="1">
          <mxGeometry relative="1" as="geometry">
            <Array as="points" />
            <mxPoint y="256" as="sourcePoint" />
            <mxPoint x="1136" y="256" as="targetPoint" />
          </mxGeometry>
        </mxCell>
        <mxCell id="LvrahCDW-8UCbeui2JCp-86" style="vsdxID=1322;edgeStyle=none;startArrow=none;endArrow=none;startSize=5;endSize=5;strokeColor=#d8d8d8;spacingTop=0;spacingBottom=0;spacingLeft=0;spacingRight=0;verticalAlign=middle;html=1;labelBackgroundColor=#ffffff;rounded=0;fillOpacity=80;strokeOpacity=20;" parent="LvrahCDW-8UCbeui2JCp-2" edge="1">
          <mxGeometry relative="1" as="geometry">
            <Array as="points" />
            <mxPoint y="272" as="sourcePoint" />
            <mxPoint x="1136" y="272" as="targetPoint" />
          </mxGeometry>
        </mxCell>
        <mxCell id="LvrahCDW-8UCbeui2JCp-87" style="vsdxID=1323;edgeStyle=none;startArrow=none;endArrow=none;startSize=5;endSize=5;strokeColor=#d8d8d8;spacingTop=0;spacingBottom=0;spacingLeft=0;spacingRight=0;verticalAlign=middle;html=1;labelBackgroundColor=#ffffff;rounded=0;fillOpacity=80;strokeOpacity=20;" parent="LvrahCDW-8UCbeui2JCp-2" edge="1">
          <mxGeometry relative="1" as="geometry">
            <Array as="points" />
            <mxPoint y="208" as="sourcePoint" />
            <mxPoint x="1136" y="208" as="targetPoint" />
          </mxGeometry>
        </mxCell>
        <mxCell id="LvrahCDW-8UCbeui2JCp-88" style="vsdxID=1324;edgeStyle=none;startArrow=none;endArrow=none;startSize=5;endSize=5;strokeColor=#d8d8d8;spacingTop=0;spacingBottom=0;spacingLeft=0;spacingRight=0;verticalAlign=middle;html=1;labelBackgroundColor=#ffffff;rounded=0;fillOpacity=80;strokeOpacity=20;" parent="LvrahCDW-8UCbeui2JCp-2" edge="1">
          <mxGeometry relative="1" as="geometry">
            <Array as="points" />
            <mxPoint y="288" as="sourcePoint" />
            <mxPoint x="1136" y="288" as="targetPoint" />
          </mxGeometry>
        </mxCell>
        <mxCell id="LvrahCDW-8UCbeui2JCp-89" style="vsdxID=1325;edgeStyle=none;startArrow=none;endArrow=none;startSize=5;endSize=5;strokeColor=#d8d8d8;spacingTop=0;spacingBottom=0;spacingLeft=0;spacingRight=0;verticalAlign=middle;html=1;labelBackgroundColor=#ffffff;rounded=0;fillOpacity=80;strokeOpacity=20;" parent="LvrahCDW-8UCbeui2JCp-2" edge="1">
          <mxGeometry relative="1" as="geometry">
            <Array as="points" />
            <mxPoint y="304" as="sourcePoint" />
            <mxPoint x="1136" y="304" as="targetPoint" />
          </mxGeometry>
        </mxCell>
        <mxCell id="LvrahCDW-8UCbeui2JCp-90" style="vsdxID=1326;edgeStyle=none;startArrow=none;endArrow=none;startSize=5;endSize=5;strokeColor=#7f7f7f;spacingTop=0;spacingBottom=0;spacingLeft=0;spacingRight=0;verticalAlign=middle;html=1;labelBackgroundColor=#ffffff;rounded=0;fillOpacity=80;strokeOpacity=20;" parent="LvrahCDW-8UCbeui2JCp-2" edge="1">
          <mxGeometry relative="1" as="geometry">
            <Array as="points" />
            <mxPoint y="320" as="sourcePoint" />
            <mxPoint x="1136" y="320" as="targetPoint" />
          </mxGeometry>
        </mxCell>
        <mxCell id="LvrahCDW-8UCbeui2JCp-91" style="vsdxID=1327;edgeStyle=none;startArrow=none;endArrow=none;startSize=5;endSize=5;strokeColor=#d8d8d8;spacingTop=0;spacingBottom=0;spacingLeft=0;spacingRight=0;verticalAlign=middle;html=1;labelBackgroundColor=#ffffff;rounded=0;fillOpacity=80;strokeOpacity=20;" parent="LvrahCDW-8UCbeui2JCp-2" edge="1">
          <mxGeometry relative="1" as="geometry">
            <Array as="points" />
            <mxPoint y="336" as="sourcePoint" />
            <mxPoint x="1136" y="336" as="targetPoint" />
          </mxGeometry>
        </mxCell>
        <mxCell id="LvrahCDW-8UCbeui2JCp-92" style="vsdxID=1328;edgeStyle=none;startArrow=none;endArrow=none;startSize=5;endSize=5;strokeColor=#d8d8d8;spacingTop=0;spacingBottom=0;spacingLeft=0;spacingRight=0;verticalAlign=middle;html=1;labelBackgroundColor=#ffffff;rounded=0;fillOpacity=80;strokeOpacity=20;" parent="LvrahCDW-8UCbeui2JCp-2" edge="1">
          <mxGeometry relative="1" as="geometry">
            <Array as="points" />
            <mxPoint y="368" as="sourcePoint" />
            <mxPoint x="1136" y="368" as="targetPoint" />
          </mxGeometry>
        </mxCell>
        <mxCell id="LvrahCDW-8UCbeui2JCp-93" style="vsdxID=1329;edgeStyle=none;startArrow=none;endArrow=none;startSize=5;endSize=5;strokeColor=#d8d8d8;spacingTop=0;spacingBottom=0;spacingLeft=0;spacingRight=0;verticalAlign=middle;html=1;labelBackgroundColor=#ffffff;rounded=0;fillOpacity=80;strokeOpacity=20;" parent="LvrahCDW-8UCbeui2JCp-2" edge="1">
          <mxGeometry relative="1" as="geometry">
            <Array as="points" />
            <mxPoint y="384" as="sourcePoint" />
            <mxPoint x="1136" y="384" as="targetPoint" />
          </mxGeometry>
        </mxCell>
        <mxCell id="LvrahCDW-8UCbeui2JCp-94" style="vsdxID=1330;edgeStyle=none;startArrow=none;endArrow=none;startSize=5;endSize=5;strokeColor=#7f7f7f;spacingTop=0;spacingBottom=0;spacingLeft=0;spacingRight=0;verticalAlign=middle;html=1;labelBackgroundColor=#ffffff;rounded=0;fillOpacity=80;strokeOpacity=20;" parent="LvrahCDW-8UCbeui2JCp-2" edge="1">
          <mxGeometry relative="1" as="geometry">
            <Array as="points" />
            <mxPoint y="400" as="sourcePoint" />
            <mxPoint x="1136" y="400" as="targetPoint" />
          </mxGeometry>
        </mxCell>
        <mxCell id="LvrahCDW-8UCbeui2JCp-95" style="vsdxID=1331;edgeStyle=none;startArrow=none;endArrow=none;startSize=5;endSize=5;strokeColor=#d8d8d8;spacingTop=0;spacingBottom=0;spacingLeft=0;spacingRight=0;verticalAlign=middle;html=1;labelBackgroundColor=#ffffff;rounded=0;fillOpacity=80;strokeOpacity=20;" parent="LvrahCDW-8UCbeui2JCp-2" edge="1">
          <mxGeometry relative="1" as="geometry">
            <Array as="points" />
            <mxPoint y="416" as="sourcePoint" />
            <mxPoint x="1136" y="416" as="targetPoint" />
          </mxGeometry>
        </mxCell>
        <mxCell id="LvrahCDW-8UCbeui2JCp-96" style="vsdxID=1332;edgeStyle=none;startArrow=none;endArrow=none;startSize=5;endSize=5;strokeColor=#d8d8d8;spacingTop=0;spacingBottom=0;spacingLeft=0;spacingRight=0;verticalAlign=middle;html=1;labelBackgroundColor=#ffffff;rounded=0;fillOpacity=80;strokeOpacity=20;" parent="LvrahCDW-8UCbeui2JCp-2" edge="1">
          <mxGeometry relative="1" as="geometry">
            <Array as="points" />
            <mxPoint y="352" as="sourcePoint" />
            <mxPoint x="1136" y="352" as="targetPoint" />
          </mxGeometry>
        </mxCell>
        <mxCell id="LvrahCDW-8UCbeui2JCp-97" style="vsdxID=1333;edgeStyle=none;startArrow=none;endArrow=none;startSize=5;endSize=5;strokeColor=#d8d8d8;spacingTop=0;spacingBottom=0;spacingLeft=0;spacingRight=0;verticalAlign=middle;html=1;labelBackgroundColor=#ffffff;rounded=0;fillOpacity=80;strokeOpacity=20;" parent="LvrahCDW-8UCbeui2JCp-2" edge="1">
          <mxGeometry relative="1" as="geometry">
            <Array as="points" />
            <mxPoint y="432" as="sourcePoint" />
            <mxPoint x="1136" y="432" as="targetPoint" />
          </mxGeometry>
        </mxCell>
        <mxCell id="LvrahCDW-8UCbeui2JCp-98" style="vsdxID=1334;edgeStyle=none;startArrow=none;endArrow=none;startSize=5;endSize=5;strokeColor=#d8d8d8;spacingTop=0;spacingBottom=0;spacingLeft=0;spacingRight=0;verticalAlign=middle;html=1;labelBackgroundColor=#ffffff;rounded=0;fillOpacity=80;strokeOpacity=20;" parent="LvrahCDW-8UCbeui2JCp-2" edge="1">
          <mxGeometry relative="1" as="geometry">
            <Array as="points" />
            <mxPoint y="448" as="sourcePoint" />
            <mxPoint x="1136" y="448" as="targetPoint" />
          </mxGeometry>
        </mxCell>
        <mxCell id="LvrahCDW-8UCbeui2JCp-99" style="vsdxID=1335;edgeStyle=none;startArrow=none;endArrow=none;startSize=5;endSize=5;strokeColor=#d8d8d8;spacingTop=0;spacingBottom=0;spacingLeft=0;spacingRight=0;verticalAlign=middle;html=1;labelBackgroundColor=#ffffff;rounded=0;fillOpacity=80;strokeOpacity=20;" parent="LvrahCDW-8UCbeui2JCp-2" edge="1">
          <mxGeometry relative="1" as="geometry">
            <Array as="points" />
            <mxPoint y="464" as="sourcePoint" />
            <mxPoint x="1136" y="464" as="targetPoint" />
          </mxGeometry>
        </mxCell>
        <mxCell id="LvrahCDW-8UCbeui2JCp-100" style="vsdxID=1336;edgeStyle=none;startArrow=none;endArrow=none;startSize=5;endSize=5;strokeColor=#7f7f7f;spacingTop=0;spacingBottom=0;spacingLeft=0;spacingRight=0;verticalAlign=middle;html=1;labelBackgroundColor=#ffffff;rounded=0;fillOpacity=80;strokeOpacity=20;" parent="LvrahCDW-8UCbeui2JCp-2" edge="1">
          <mxGeometry relative="1" as="geometry">
            <Array as="points" />
            <mxPoint y="480" as="sourcePoint" />
            <mxPoint x="1136" y="480" as="targetPoint" />
          </mxGeometry>
        </mxCell>
        <mxCell id="LvrahCDW-8UCbeui2JCp-101" style="vsdxID=1337;edgeStyle=none;startArrow=none;endArrow=none;startSize=5;endSize=5;strokeColor=#d8d8d8;spacingTop=0;spacingBottom=0;spacingLeft=0;spacingRight=0;verticalAlign=middle;html=1;labelBackgroundColor=#ffffff;rounded=0;fillOpacity=80;strokeOpacity=20;" parent="LvrahCDW-8UCbeui2JCp-2" edge="1">
          <mxGeometry relative="1" as="geometry">
            <Array as="points" />
            <mxPoint y="512" as="sourcePoint" />
            <mxPoint x="1136" y="512" as="targetPoint" />
          </mxGeometry>
        </mxCell>
        <mxCell id="LvrahCDW-8UCbeui2JCp-102" style="vsdxID=1338;edgeStyle=none;startArrow=none;endArrow=none;startSize=5;endSize=5;strokeColor=#d8d8d8;spacingTop=0;spacingBottom=0;spacingLeft=0;spacingRight=0;verticalAlign=middle;html=1;labelBackgroundColor=#ffffff;rounded=0;fillOpacity=80;strokeOpacity=20;" parent="LvrahCDW-8UCbeui2JCp-2" edge="1">
          <mxGeometry relative="1" as="geometry">
            <Array as="points" />
            <mxPoint y="528" as="sourcePoint" />
            <mxPoint x="1136" y="528" as="targetPoint" />
          </mxGeometry>
        </mxCell>
        <mxCell id="LvrahCDW-8UCbeui2JCp-103" style="vsdxID=1339;edgeStyle=none;startArrow=none;endArrow=none;startSize=5;endSize=5;strokeColor=#d8d8d8;spacingTop=0;spacingBottom=0;spacingLeft=0;spacingRight=0;verticalAlign=middle;html=1;labelBackgroundColor=#ffffff;rounded=0;fillOpacity=80;strokeOpacity=20;" parent="LvrahCDW-8UCbeui2JCp-2" edge="1">
          <mxGeometry relative="1" as="geometry">
            <Array as="points" />
            <mxPoint y="544" as="sourcePoint" />
            <mxPoint x="1136" y="544" as="targetPoint" />
          </mxGeometry>
        </mxCell>
        <mxCell id="LvrahCDW-8UCbeui2JCp-104" style="vsdxID=1340;edgeStyle=none;startArrow=none;endArrow=none;startSize=5;endSize=5;strokeColor=#7f7f7f;spacingTop=0;spacingBottom=0;spacingLeft=0;spacingRight=0;verticalAlign=middle;html=1;labelBackgroundColor=#ffffff;rounded=0;fillOpacity=80;strokeOpacity=20;" parent="LvrahCDW-8UCbeui2JCp-2" edge="1">
          <mxGeometry relative="1" as="geometry">
            <Array as="points" />
            <mxPoint y="560" as="sourcePoint" />
            <mxPoint x="1136" y="560" as="targetPoint" />
          </mxGeometry>
        </mxCell>
        <mxCell id="LvrahCDW-8UCbeui2JCp-105" style="vsdxID=1341;edgeStyle=none;startArrow=none;endArrow=none;startSize=5;endSize=5;strokeColor=#d8d8d8;spacingTop=0;spacingBottom=0;spacingLeft=0;spacingRight=0;verticalAlign=middle;html=1;labelBackgroundColor=#ffffff;rounded=0;fillOpacity=80;strokeOpacity=20;" parent="LvrahCDW-8UCbeui2JCp-2" edge="1">
          <mxGeometry relative="1" as="geometry">
            <Array as="points" />
            <mxPoint y="496" as="sourcePoint" />
            <mxPoint x="1136" y="496" as="targetPoint" />
          </mxGeometry>
        </mxCell>
        <mxCell id="LvrahCDW-8UCbeui2JCp-106" style="vsdxID=1342;edgeStyle=none;startArrow=none;endArrow=none;startSize=5;endSize=5;strokeColor=#d8d8d8;spacingTop=0;spacingBottom=0;spacingLeft=0;spacingRight=0;verticalAlign=middle;html=1;labelBackgroundColor=#ffffff;rounded=0;fillOpacity=80;strokeOpacity=20;" parent="LvrahCDW-8UCbeui2JCp-2" edge="1">
          <mxGeometry relative="1" as="geometry">
            <Array as="points" />
            <mxPoint y="576" as="sourcePoint" />
            <mxPoint x="1136" y="576" as="targetPoint" />
          </mxGeometry>
        </mxCell>
        <mxCell id="LvrahCDW-8UCbeui2JCp-107" style="vsdxID=1343;edgeStyle=none;startArrow=none;endArrow=none;startSize=5;endSize=5;strokeColor=#d8d8d8;spacingTop=0;spacingBottom=0;spacingLeft=0;spacingRight=0;verticalAlign=middle;html=1;labelBackgroundColor=#ffffff;rounded=0;fillOpacity=80;strokeOpacity=20;" parent="LvrahCDW-8UCbeui2JCp-2" edge="1">
          <mxGeometry relative="1" as="geometry">
            <Array as="points" />
            <mxPoint y="592" as="sourcePoint" />
            <mxPoint x="1136" y="592" as="targetPoint" />
          </mxGeometry>
        </mxCell>
        <mxCell id="LvrahCDW-8UCbeui2JCp-108" style="vsdxID=1344;edgeStyle=none;startArrow=none;endArrow=none;startSize=5;endSize=5;strokeColor=#d8d8d8;spacingTop=0;spacingBottom=0;spacingLeft=0;spacingRight=0;verticalAlign=middle;html=1;labelBackgroundColor=#ffffff;rounded=0;fillOpacity=80;strokeOpacity=20;" parent="LvrahCDW-8UCbeui2JCp-2" edge="1">
          <mxGeometry relative="1" as="geometry">
            <Array as="points" />
            <mxPoint y="608" as="sourcePoint" />
            <mxPoint x="1136" y="608" as="targetPoint" />
          </mxGeometry>
        </mxCell>
        <mxCell id="LvrahCDW-8UCbeui2JCp-109" style="vsdxID=1345;edgeStyle=none;startArrow=none;endArrow=none;startSize=5;endSize=5;strokeColor=#d8d8d8;spacingTop=0;spacingBottom=0;spacingLeft=0;spacingRight=0;verticalAlign=middle;html=1;labelBackgroundColor=#ffffff;rounded=0;fillOpacity=80;strokeOpacity=20;" parent="LvrahCDW-8UCbeui2JCp-2" edge="1">
          <mxGeometry relative="1" as="geometry">
            <Array as="points" />
            <mxPoint y="624" as="sourcePoint" />
            <mxPoint x="1136" y="624" as="targetPoint" />
          </mxGeometry>
        </mxCell>
        <mxCell id="LvrahCDW-8UCbeui2JCp-110" style="vsdxID=1346;edgeStyle=none;startArrow=none;endArrow=none;startSize=5;endSize=5;strokeColor=#d8d8d8;spacingTop=0;spacingBottom=0;spacingLeft=0;spacingRight=0;verticalAlign=middle;html=1;labelBackgroundColor=#ffffff;rounded=0;fillOpacity=80;strokeOpacity=20;" parent="LvrahCDW-8UCbeui2JCp-2" edge="1">
          <mxGeometry relative="1" as="geometry">
            <Array as="points" />
            <mxPoint y="656" as="sourcePoint" />
            <mxPoint x="1136" y="656" as="targetPoint" />
          </mxGeometry>
        </mxCell>
        <mxCell id="LvrahCDW-8UCbeui2JCp-111" style="vsdxID=1347;edgeStyle=none;startArrow=none;endArrow=none;startSize=5;endSize=5;strokeColor=#d8d8d8;spacingTop=0;spacingBottom=0;spacingLeft=0;spacingRight=0;verticalAlign=middle;html=1;labelBackgroundColor=#ffffff;rounded=0;fillOpacity=80;strokeOpacity=20;" parent="LvrahCDW-8UCbeui2JCp-2" edge="1">
          <mxGeometry relative="1" as="geometry">
            <Array as="points" />
            <mxPoint y="672" as="sourcePoint" />
            <mxPoint x="1136" y="672" as="targetPoint" />
          </mxGeometry>
        </mxCell>
        <mxCell id="LvrahCDW-8UCbeui2JCp-112" style="vsdxID=1348;edgeStyle=none;startArrow=none;endArrow=none;startSize=5;endSize=5;strokeColor=#d8d8d8;spacingTop=0;spacingBottom=0;spacingLeft=0;spacingRight=0;verticalAlign=middle;html=1;labelBackgroundColor=#ffffff;rounded=0;fillOpacity=80;strokeOpacity=20;" parent="LvrahCDW-8UCbeui2JCp-2" edge="1">
          <mxGeometry relative="1" as="geometry">
            <Array as="points" />
            <mxPoint y="688" as="sourcePoint" />
            <mxPoint x="1136" y="688" as="targetPoint" />
          </mxGeometry>
        </mxCell>
        <mxCell id="LvrahCDW-8UCbeui2JCp-113" style="vsdxID=1349;edgeStyle=none;startArrow=none;endArrow=none;startSize=5;endSize=5;strokeColor=#d8d8d8;spacingTop=0;spacingBottom=0;spacingLeft=0;spacingRight=0;verticalAlign=middle;html=1;labelBackgroundColor=#ffffff;rounded=0;fillOpacity=80;strokeOpacity=20;" parent="LvrahCDW-8UCbeui2JCp-2" edge="1">
          <mxGeometry relative="1" as="geometry">
            <Array as="points" />
            <mxPoint y="704" as="sourcePoint" />
            <mxPoint x="1136" y="704" as="targetPoint" />
          </mxGeometry>
        </mxCell>
        <mxCell id="LvrahCDW-8UCbeui2JCp-114" style="vsdxID=1350;edgeStyle=none;startArrow=none;endArrow=none;startSize=5;endSize=5;strokeColor=#7f7f7f;spacingTop=0;spacingBottom=0;spacingLeft=0;spacingRight=0;verticalAlign=middle;html=1;labelBackgroundColor=#ffffff;rounded=0;fillOpacity=80;strokeOpacity=20;" parent="LvrahCDW-8UCbeui2JCp-2" edge="1">
          <mxGeometry relative="1" as="geometry">
            <Array as="points" />
            <mxPoint y="640" as="sourcePoint" />
            <mxPoint x="1136" y="640" as="targetPoint" />
          </mxGeometry>
        </mxCell>
        <mxCell id="LvrahCDW-8UCbeui2JCp-115" style="vsdxID=1351;edgeStyle=none;startArrow=none;endArrow=none;startSize=5;endSize=5;strokeColor=#7f7f7f;spacingTop=0;spacingBottom=0;spacingLeft=0;spacingRight=0;verticalAlign=middle;html=1;labelBackgroundColor=#ffffff;rounded=0;fillOpacity=80;strokeOpacity=20;" parent="LvrahCDW-8UCbeui2JCp-2" edge="1">
          <mxGeometry relative="1" as="geometry">
            <Array as="points" />
            <mxPoint y="720" as="sourcePoint" />
            <mxPoint x="1136" y="720" as="targetPoint" />
          </mxGeometry>
        </mxCell>
        <mxCell id="LvrahCDW-8UCbeui2JCp-116" style="vsdxID=1352;edgeStyle=none;startArrow=none;endArrow=none;startSize=5;endSize=5;strokeColor=#d8d8d8;spacingTop=0;spacingBottom=0;spacingLeft=0;spacingRight=0;verticalAlign=middle;html=1;labelBackgroundColor=#ffffff;rounded=0;fillOpacity=80;strokeOpacity=20;" parent="LvrahCDW-8UCbeui2JCp-2" edge="1">
          <mxGeometry relative="1" as="geometry">
            <Array as="points" />
            <mxPoint y="736" as="sourcePoint" />
            <mxPoint x="1136" y="736" as="targetPoint" />
          </mxGeometry>
        </mxCell>
        <mxCell id="LvrahCDW-8UCbeui2JCp-117" style="vsdxID=1353;edgeStyle=none;startArrow=none;endArrow=none;startSize=5;endSize=5;strokeColor=#d8d8d8;spacingTop=0;spacingBottom=0;spacingLeft=0;spacingRight=0;verticalAlign=middle;html=1;labelBackgroundColor=#ffffff;rounded=0;fillOpacity=80;strokeOpacity=20;" parent="LvrahCDW-8UCbeui2JCp-2" edge="1">
          <mxGeometry relative="1" as="geometry">
            <Array as="points" />
            <mxPoint y="752" as="sourcePoint" />
            <mxPoint x="1136" y="752" as="targetPoint" />
          </mxGeometry>
        </mxCell>
        <mxCell id="LvrahCDW-8UCbeui2JCp-118" style="vsdxID=1354;edgeStyle=none;startArrow=none;endArrow=none;startSize=5;endSize=5;strokeColor=#d8d8d8;spacingTop=0;spacingBottom=0;spacingLeft=0;spacingRight=0;verticalAlign=middle;html=1;labelBackgroundColor=#ffffff;rounded=0;fillOpacity=80;strokeOpacity=20;" parent="LvrahCDW-8UCbeui2JCp-2" edge="1">
          <mxGeometry relative="1" as="geometry">
            <Array as="points" />
            <mxPoint y="768" as="sourcePoint" />
            <mxPoint x="1136" y="768" as="targetPoint" />
          </mxGeometry>
        </mxCell>
        <mxCell id="LvrahCDW-8UCbeui2JCp-119" style="vsdxID=1359;edgeStyle=none;startArrow=none;endArrow=none;startSize=5;endSize=5;strokeColor=#d8d8d8;spacingTop=0;spacingBottom=0;spacingLeft=0;spacingRight=0;verticalAlign=middle;html=1;labelBackgroundColor=#ffffff;rounded=0;fillOpacity=80;strokeOpacity=20;" parent="LvrahCDW-8UCbeui2JCp-2" edge="1">
          <mxGeometry relative="1" as="geometry">
            <Array as="points" />
            <mxPoint y="784" as="sourcePoint" />
            <mxPoint x="1136" y="784" as="targetPoint" />
          </mxGeometry>
        </mxCell>
        <mxCell id="LvrahCDW-8UCbeui2JCp-120" style="vsdxID=1401;edgeStyle=none;startArrow=none;endArrow=none;startSize=5;endSize=5;strokeColor=#d8d8d8;spacingTop=0;spacingBottom=0;spacingLeft=0;spacingRight=0;verticalAlign=middle;html=1;labelBackgroundColor=#ffffff;rounded=0;fillOpacity=80;strokeOpacity=20;" parent="LvrahCDW-8UCbeui2JCp-2" edge="1">
          <mxGeometry relative="1" as="geometry">
            <Array as="points" />
            <mxPoint y="32" as="sourcePoint" />
            <mxPoint x="1136" y="32" as="targetPoint" />
          </mxGeometry>
        </mxCell>
        <mxCell id="LvrahCDW-8UCbeui2JCp-121" style="vsdxID=1400;edgeStyle=none;startArrow=none;endArrow=none;startSize=5;endSize=5;strokeColor=#d8d8d8;spacingTop=0;spacingBottom=0;spacingLeft=0;spacingRight=0;verticalAlign=middle;html=1;labelBackgroundColor=#ffffff;rounded=0;fillOpacity=80;strokeOpacity=20;" parent="LvrahCDW-8UCbeui2JCp-2" edge="1">
          <mxGeometry relative="1" as="geometry">
            <Array as="points" />
            <mxPoint y="16" as="sourcePoint" />
            <mxPoint x="1136" y="16" as="targetPoint" />
          </mxGeometry>
        </mxCell>
        <mxCell id="LvrahCDW-8UCbeui2JCp-122" style="vsdxID=1362;edgeStyle=none;startArrow=none;endArrow=none;startSize=5;endSize=5;strokeColor=#0F0F0F;spacingTop=0;spacingBottom=0;spacingLeft=0;spacingRight=0;verticalAlign=middle;html=1;labelBackgroundColor=#ffffff;rounded=0;fillOpacity=80;strokeOpacity=20;" parent="LvrahCDW-8UCbeui2JCp-2" edge="1">
          <mxGeometry relative="1" as="geometry">
            <Array as="points" />
            <mxPoint as="sourcePoint" />
            <mxPoint y="800" as="targetPoint" />
          </mxGeometry>
        </mxCell>
        <mxCell id="LvrahCDW-8UCbeui2JCp-123" style="vsdxID=1310;edgeStyle=none;startArrow=none;endArrow=none;startSize=5;endSize=5;strokeColor=#7f7f7f;spacingTop=0;spacingBottom=0;spacingLeft=0;spacingRight=0;verticalAlign=middle;html=1;labelBackgroundColor=#ffffff;rounded=0;fillOpacity=80;strokeOpacity=20;" parent="LvrahCDW-8UCbeui2JCp-2" edge="1">
          <mxGeometry relative="1" as="geometry">
            <Array as="points" />
            <mxPoint as="sourcePoint" />
            <mxPoint x="1136" as="targetPoint" />
          </mxGeometry>
        </mxCell>
        <mxCell id="LvrahCDW-8UCbeui2JCp-124" value="Symbol" style="locked=1;" parent="LvrahCDW-8UCbeui2JCp-0" />
        <mxCell id="LvrahCDW-8UCbeui2JCp-127" value="" style="endArrow=none;html=1;rounded=0;fontFamily=Helvetica;fontSize=16;" parent="LvrahCDW-8UCbeui2JCp-124" edge="1">
          <mxGeometry width="50" height="50" relative="1" as="geometry">
            <mxPoint x="368" y="336" as="sourcePoint" />
            <mxPoint x="368" y="144" as="targetPoint" />
          </mxGeometry>
        </mxCell>
        <mxCell id="fwaHwBYnv0E5_7xOQDU3-5" value="" style="group" parent="LvrahCDW-8UCbeui2JCp-124" vertex="1" connectable="0">
          <mxGeometry x="240" y="176" width="256" height="5.684341886080802e-14" as="geometry" />
        </mxCell>
        <mxCell id="fwaHwBYnv0E5_7xOQDU3-1" value="" style="endArrow=none;html=1;rounded=0;fontFamily=Helvetica;fontSize=16;" parent="fwaHwBYnv0E5_7xOQDU3-5" edge="1">
          <mxGeometry width="50" height="50" relative="1" as="geometry">
            <mxPoint as="sourcePoint" />
            <mxPoint x="256" as="targetPoint" />
          </mxGeometry>
        </mxCell>
        <mxCell id="fwaHwBYnv0E5_7xOQDU3-3" value="" style="shape=mxgraph.arrows2.wedgeArrow;html=1;bendable=0;startWidth=6;fillColor=strokeColor;defaultFillColor=invert;defaultGradientColor=invert;rounded=0;fontFamily=Helvetica;fontSize=16;" parent="fwaHwBYnv0E5_7xOQDU3-5" edge="1">
          <mxGeometry width="100" height="100" relative="1" as="geometry">
            <mxPoint x="110" as="sourcePoint" />
            <mxPoint x="128" as="targetPoint" />
          </mxGeometry>
        </mxCell>
        <mxCell id="fwaHwBYnv0E5_7xOQDU3-4" value="" style="shape=mxgraph.arrows2.wedgeArrow;html=1;bendable=0;startWidth=6;fillColor=strokeColor;defaultFillColor=invert;defaultGradientColor=invert;rounded=0;fontFamily=Helvetica;fontSize=16;" parent="fwaHwBYnv0E5_7xOQDU3-5" edge="1">
          <mxGeometry width="100" height="100" relative="1" as="geometry">
            <mxPoint x="146" y="5.684341886080802e-14" as="sourcePoint" />
            <mxPoint x="128" y="5.684341886080802e-14" as="targetPoint" />
          </mxGeometry>
        </mxCell>
        <mxCell id="LvrahCDW-8UCbeui2JCp-128" value="Connection" style="locked=1;" parent="LvrahCDW-8UCbeui2JCp-0" />
        <object label="Connection" PipingConnector="Y" LabelConnector="N" SignalConnector="N" Direction="0; 90; 180; 270" AuxiliaryConnector="N" id="I_GGTrLUoTgERq_38wPd-0">
          <mxCell style="vsdxID=1407;fillColor=none;gradientColor=none;shape=stencil(rVFbDsIgEDwNnyQU4glqvcfGblsilmZBS28vZGMsxg9j/JvZmX1kR5g2TLCg0CpE8hdcbR8nYY5CaztPSDZmJEwnTDt4wpH8be6ZL1CcBV39vUxI3KdKh1YbswPTEzuBzlmiVGmKau9zUKM+jlJJQrJBko8QrZ+rrQ5oRJnXyMHBWElhRVx25ebnw/5zVvPFWRm83jxY5zilvf4eSy5xpKZ7AA==);strokeColor=#00FF00;strokeWidth=1;points=[[0.5,0.5,0,0,0]];labelBackgroundColor=none;rounded=0;html=1;whiteSpace=wrap;aspect=fixed;noLabel=1;snapToPoint=1;container=0;fontSize=16;" parent="LvrahCDW-8UCbeui2JCp-128" vertex="1">
            <mxGeometry x="362" y="330" width="12" height="12" as="geometry" />
          </mxCell>
        </object>
        <mxCell id="LvrahCDW-8UCbeui2JCp-133" value="Dimension" style="locked=1;" parent="LvrahCDW-8UCbeui2JCp-0" />
        <object label="%Dimension%: %Value%%UoM%" Dimension="H" placeholders="1" UoM="mm" Value="12" id="LvrahCDW-8UCbeui2JCp-134">
          <mxCell style="shape=dimension;direction=north;whiteSpace=wrap;html=1;align=right;points=[];verticalAlign=middle;labelBackgroundColor=#ffffff;fillColor=none;movableLabel=1;fontColor=#a6a6a6;strokeColor=#a6a6a6;" parent="LvrahCDW-8UCbeui2JCp-133" vertex="1">
            <mxGeometry x="32" y="144" width="54" height="192" as="geometry">
              <mxPoint x="-8" as="offset" />
            </mxGeometry>
          </mxCell>
        </object>
        <object label="%Dimension%: %Value%%UoM%" placeholders="1" Dimension="W" UoM="mm" Value="16" id="LvrahCDW-8UCbeui2JCp-135">
          <mxCell style="shape=dimension;whiteSpace=wrap;html=1;align=center;points=[];verticalAlign=bottom;spacingBottom=-5;labelBackgroundColor=#ffffff;fillColor=none;movableLabel=1;fontColor=#a6a6a6;strokeColor=#a6a6a6;" parent="LvrahCDW-8UCbeui2JCp-133" vertex="1">
            <mxGeometry x="240" y="30" width="256" height="38" as="geometry">
              <mxPoint x="1" y="-14" as="offset" />
            </mxGeometry>
          </mxCell>
        </object>
        <mxCell id="LvrahCDW-8UCbeui2JCp-136" value="Option1" style="locked=1;" parent="LvrahCDW-8UCbeui2JCp-0" />
        <mxCell id="LvrahCDW-8UCbeui2JCp-137" value="Label" style="locked=1;" parent="LvrahCDW-8UCbeui2JCp-0" />
        <object label="%LabelIndex%&amp;nbsp; &amp;nbsp; &amp;nbsp; &amp;nbsp; &amp;nbsp; &amp;nbsp;%LabelLines%" placeholders="1" LabelLines="1" LabelIndex="A" id="LvrahCDW-8UCbeui2JCp-138">
          <mxCell style="rounded=0;whiteSpace=wrap;html=1;fillColor=none;strokeColor=#FF0000;fontColor=#FF0000;fontSize=10;align=left;" parent="LvrahCDW-8UCbeui2JCp-137" vertex="1">
            <mxGeometry x="256" y="152" width="80" height="16" as="geometry" />
          </mxCell>
        </object>
        <object label="%LabelIndex%&amp;nbsp; &amp;nbsp; &amp;nbsp; &amp;nbsp; &amp;nbsp; &amp;nbsp;%LabelLines%" placeholders="1" LabelLines="1" LabelIndex="B" id="LvrahCDW-8UCbeui2JCp-139">
          <mxCell style="rounded=0;whiteSpace=wrap;html=1;fillColor=none;strokeColor=#FF0000;fontColor=#FF0000;fontSize=10;align=left;" parent="LvrahCDW-8UCbeui2JCp-137" vertex="1">
            <mxGeometry x="400" y="152" width="80" height="16" as="geometry" />
          </mxCell>
        </object>
        <mxCell id="LvrahCDW-8UCbeui2JCp-141" value="Origo" style="locked=1;" parent="LvrahCDW-8UCbeui2JCp-0" />
        <object label="origo" id="LvrahCDW-8UCbeui2JCp-142">
          <mxCell style="vsdxID=1407;fillColor=none;gradientColor=none;shape=stencil(rVFbDsIgEDwNnyQU4glqvcfGblsilmZBS28vZGMsxg9j/JvZmX1kR5g2TLCg0CpE8hdcbR8nYY5CaztPSDZmJEwnTDt4wpH8be6ZL1CcBV39vUxI3KdKh1YbswPTEzuBzlmiVGmKau9zUKM+jlJJQrJBko8QrZ+rrQ5oRJnXyMHBWElhRVx25ebnw/5zVvPFWRm83jxY5zilvf4eSy5xpKZ7AA==);strokeColor=#ff0000;strokeWidth=1;points=[[0.5,0.5,0,0,0]];labelBackgroundColor=none;rounded=0;html=1;whiteSpace=wrap;aspect=fixed;noLabel=1;snapToPoint=1;" parent="LvrahCDW-8UCbeui2JCp-141" vertex="1">
            <mxGeometry x="364" y="332" width="7.874" height="7.87" as="geometry" />
          </mxCell>
        </object>
      </root>
    </mxGraphModel>
  </diagram>
</mxfile>
